<svg width="32" height="32" viewBox="0 0 32 32" fill="none" xmlns="http://www.w3.org/2000/svg">
<rect width="3.19996" height="3.19996" transform="matrix(1 8.74228e-08 8.74228e-08 -1 11.2002 11.2)" fill="#F1F1F1"/>
<rect width="3.19996" height="3.19996" transform="matrix(1 8.74228e-08 8.74228e-08 -1 11.2002 17.6123)" fill="#F1F1F1"/>
<rect width="3.19996" height="3.19996" transform="matrix(1 8.74228e-08 8.74228e-08 -1 17.6006 24)" fill="#F1F1F1"/>
<rect width="3.19996" height="3.19996" transform="matrix(1 8.74228e-08 8.74228e-08 -1 11.2002 24)" fill="#F1F1F1"/>
<rect width="3.19996" height="3.19996" transform="matrix(1 8.74228e-08 8.74228e-08 -1 20.7998 14.3999)" fill="#F1F1F1"/>
<rect width="3.19996" height="3.19996" transform="matrix(1 8.74228e-08 8.74228e-08 -1 20.7998 20.7876)" fill="#F1F1F1"/>
<rect width="3.19996" height="3.19996" transform="matrix(1 8.74228e-08 8.74228e-08 -1 8 14.4124)" fill="#F1F1F1"/>
<rect width="3.19996" height="3.19996" transform="matrix(1 8.74228e-08 8.74228e-08 -1 8 20.8)" fill="#F1F1F1"/>
<rect width="3.19996" height="3.19996" transform="matrix(1 8.74228e-08 8.74228e-08 -1 17.5996 11.2)" fill="#F1F1F1"/>
<rect width="3.19996" height="3.19996" transform="matrix(1 8.74228e-08 8.74228e-08 -1 17.6006 17.6123)" fill="#F1F1F1"/>
</svg>
