<svg width="32" height="32" viewBox="0 0 32 32" fill="none" xmlns="http://www.w3.org/2000/svg">
<rect width="3.19996" height="3.19996" transform="matrix(1 8.74228e-08 8.74228e-08 -1 24 17.6187)" fill="black"/>
<rect width="3.19996" height="3.19996" transform="matrix(1 8.74228e-08 8.74228e-08 -1 11.2002 20.7935)" fill="black"/>
<rect width="3.19996" height="3.19996" transform="matrix(1 8.74228e-08 8.74228e-08 -1 8 20.7935)" fill="black"/>
<rect width="3.19996" height="3.19996" transform="matrix(1 8.74228e-08 8.74228e-08 -1 11.2002 14.4062)" fill="black"/>
<rect width="3.19996" height="3.19996" transform="matrix(1 8.74228e-08 8.74228e-08 -1 8 14.4062)" fill="black"/>
<rect width="3.19996" height="3.19996" transform="matrix(1 8.74228e-08 8.74228e-08 -1 4.7998 17.6187)" fill="black"/>
<rect width="3.19996" height="3.19996" transform="matrix(1 8.74228e-08 8.74228e-08 -1 14.3994 17.6187)" fill="black"/>
<rect width="3.19996" height="3.19996" transform="matrix(1 8.74228e-08 8.74228e-08 -1 17.5996 20.7935)" fill="black"/>
<rect width="3.19996" height="3.19996" transform="matrix(1 8.74228e-08 8.74228e-08 -1 20.7998 20.7935)" fill="black"/>
<rect width="3.19996" height="3.19996" transform="matrix(1 8.74228e-08 8.74228e-08 -1 17.5996 14.4062)" fill="black"/>
<rect width="3.19996" height="3.19996" transform="matrix(1 8.74228e-08 8.74228e-08 -1 20.7998 14.4062)" fill="black"/>
</svg>
