<svg width="24" height="24" viewBox="0 0 24 24" xmlns="http://www.w3.org/2000/svg">
  <style>
    @media (prefers-color-scheme: light) {
      .bg { fill: #F1F1F1; }
      .fg { fill: #000000; }
    }
    @media (prefers-color-scheme: dark) {
      .bg { fill: #000000; }
      .fg { fill: #FFFFFF; }
    }
  </style>

  <!-- Background -->
  <rect width="24" height="24" class="bg"/>

  <!-- Cosmos Hub icon - Based on Cosmos atom logo -->
  <path class="fg" fillRule="evenodd" clipRule="evenodd" d="M14.91 6.93L7.16 14.51C7.01 14.26 6.87 14 6.75 13.73C6.33 12.83 6.12 11.87 6.12 10.88C6.12 9.89 6.33 8.93 6.75 8.03C7.16 7.13 7.74 6.35 8.47 5.7C9.2 5.06 10.05 4.56 11.01 4.22C11.97 3.88 12.99 3.71 14.08 3.71C15.17 3.71 16.2 3.89 17.16 4.23C17.5 4.36 17.82 4.51 18.14 4.69L11.15 11.55L14.91 6.93Z"/>
  <path class="fg" fillRule="evenodd" clipRule="evenodd" d="M14.21 17.01C13.31 17.35 12.36 17.52 11.37 17.52C10.38 17.52 9.42 17.31 8.52 16.9C8.18 16.77 7.86 16.62 7.54 16.45L14.53 9.59C14.68 9.84 14.81 10.09 14.93 10.36C15.35 11.26 15.56 12.22 15.56 13.21C15.56 14.2 15.35 15.16 14.93 16.06C14.52 16.96 13.94 17.74 13.21 18.39C12.48 19.03 11.63 19.53 10.67 19.87C9.71 20.21 8.69 20.38 7.6 20.38C6.51 20.38 5.48 20.2 4.52 19.86C3.93 19.66 3.38 19.4 2.87 19.08L9.86 12.22L14.21 17.01Z"/>
  <circle cx="12" cy="12" r="1.5" class="fg"/>
</svg>
