<svg width="32" height="32" viewBox="0 0 32 32" fill="none" xmlns="http://www.w3.org/2000/svg">
<rect width="3.19996" height="3.19996" transform="matrix(1 8.74228e-08 8.74228e-08 -1 11.2002 12.7937)" fill="#F1F1F1"/>
<rect width="3.19996" height="3.19996" transform="matrix(1 8.74228e-08 8.74228e-08 -1 11.2002 19.2061)" fill="#F1F1F1"/>
<rect width="3.19996" height="3.19996" transform="matrix(1 8.74228e-08 8.74228e-08 -1 14.3994 22.406)" fill="#F1F1F1"/>
<rect width="3.19996" height="3.19996" transform="matrix(1 8.74228e-08 8.74228e-08 -1 24 12.7937)" fill="#F1F1F1"/>
<rect width="3.19996" height="3.19996" transform="matrix(1 8.74228e-08 8.74228e-08 -1 4.7998 12.7937)" fill="#F1F1F1"/>
<rect width="3.19996" height="3.19996" transform="matrix(1 8.74228e-08 8.74228e-08 -1 17.5996 12.7937)" fill="#F1F1F1"/>
<rect width="3.19996" height="3.19996" transform="matrix(1 8.74228e-08 8.74228e-08 -1 17.5996 19.2061)" fill="#F1F1F1"/>
<rect width="3.19996" height="3.19996" transform="matrix(1 8.74228e-08 8.74228e-08 -1 20.7998 15.9937)" fill="#F1F1F1"/>
<rect width="3.19996" height="3.19996" transform="matrix(1 8.74228e-08 8.74228e-08 -1 8 15.9937)" fill="#F1F1F1"/>
</svg>
