<svg width="100" height="100" viewBox="0 0 100 100" fill="none" xmlns="http://www.w3.org/2000/svg">
<style>
  .icon-fill { fill: #000000; }
  @media (prefers-color-scheme: dark) {
    .icon-fill { fill: #ffffff; }
  }
  .dark .icon-fill { fill: #ffffff; }
</style>
<rect class="icon-fill" width="9.99988" height="9.99988" transform="matrix(1 8.74228e-08 8.74228e-08 -1 65 55)"/>
<rect class="icon-fill" width="9.99988" height="9.99988" transform="matrix(1 8.74228e-08 8.74228e-08 -1 35 64.9214)"/>
<rect class="icon-fill" width="9.99988" height="9.99988" transform="matrix(1 8.74228e-08 8.74228e-08 -1 25 54.9999)"/>
<rect class="icon-fill" width="9.99988" height="9.99988" transform="matrix(1 8.74228e-08 8.74228e-08 -1 55 45)"/>
<rect class="icon-fill" width="9.99988" height="9.99988" transform="matrix(1 8.74228e-08 8.74228e-08 -1 55 64.9214)"/>
<rect class="icon-fill" width="9.99988" height="9.99988" transform="matrix(1 8.74228e-08 8.74228e-08 -1 35 44.9998)"/>
<rect class="icon-fill" width="9.99988" height="9.99988" transform="matrix(1 8.74228e-08 8.74228e-08 -1 45 34.9999)"/>
<rect class="icon-fill" width="9.99988" height="9.99988" transform="matrix(1 8.74228e-08 8.74228e-08 -1 45 74.9607)"/>
</svg>
