<svg width="100" height="100" viewBox="0 0 100 100" fill="none" xmlns="http://www.w3.org/2000/svg">
<style>
  .icon-fill { fill: #000000; }
  @media (prefers-color-scheme: dark) {
    .icon-fill { fill: #ffffff; }
  }
  .dark .icon-fill { fill: #ffffff; }
</style>
<rect class="icon-fill" width="9.99988" height="9.99988" transform="matrix(1 8.74228e-08 8.74228e-08 -1 35 39.9806)"/>
<rect class="icon-fill" width="9.99988" height="9.99988" transform="matrix(1 8.74228e-08 8.74228e-08 -1 35 60.0194)"/>
<rect class="icon-fill" width="9.99988" height="9.99988" transform="matrix(1 8.74228e-08 8.74228e-08 -1 45 70.0193)"/>
<rect class="icon-fill" width="9.99988" height="9.99988" transform="matrix(1 8.74228e-08 8.74228e-08 -1 75 39.9806)"/>
<rect class="icon-fill" width="9.99988" height="9.99988" transform="matrix(1 8.74228e-08 8.74228e-08 -1 15 39.9806)"/>
<rect class="icon-fill" width="9.99988" height="9.99988" transform="matrix(1 8.74228e-08 8.74228e-08 -1 55 39.9806)"/>
<rect class="icon-fill" width="9.99988" height="9.99988" transform="matrix(1 8.74228e-08 8.74228e-08 -1 55 60.0194)"/>
<rect class="icon-fill" width="9.99988" height="9.99988" transform="matrix(1 8.74228e-08 8.74228e-08 -1 65 49.9805)"/>
<rect class="icon-fill" width="9.99988" height="9.99988" transform="matrix(1 8.74228e-08 8.74228e-08 -1 25 49.9805)"/>
</svg>
