<svg width="100" height="100" viewBox="0 0 100 100" fill="none" xmlns="http://www.w3.org/2000/svg">
<style>
  .icon-fill { fill: #000000; }
  @media (prefers-color-scheme: dark) {
    .icon-fill { fill: #ffffff; }
  }
  .dark .icon-fill { fill: #ffffff; }
</style>
<rect class="icon-fill" width="9.99988" height="9.99988" transform="matrix(1 8.74228e-08 8.74228e-08 -1 50 44.9215)"/>
<rect class="icon-fill" width="9.99988" height="9.99988" transform="matrix(1 8.74228e-08 8.74228e-08 -1 20 44.9215)"/>
<rect class="icon-fill" width="9.99988" height="9.99988" transform="matrix(1 8.74228e-08 8.74228e-08 -1 50.002 35)"/>
<rect class="icon-fill" width="9.99988" height="9.99988" transform="matrix(1 8.74228e-08 8.74228e-08 -1 60.002 64.9213)"/>
<rect class="icon-fill" width="9.99988" height="9.99988" transform="matrix(1 8.74228e-08 8.74228e-08 -1 50.002 74.9607)"/>
<rect class="icon-fill" width="9.99988" height="9.99988" transform="matrix(1 8.74228e-08 8.74228e-08 -1 60.002 84.9607)"/>
<rect class="icon-fill" width="9.99988" height="9.99988" transform="matrix(1 8.74228e-08 8.74228e-08 -1 70.002 74.9607)"/>
<rect class="icon-fill" width="9.99988" height="9.99988" transform="matrix(1 8.74228e-08 8.74228e-08 -1 20 35)"/>
<rect class="icon-fill" width="9.99988" height="9.99988" transform="matrix(1 8.74228e-08 8.74228e-08 -1 30 54.9214)"/>
<rect class="icon-fill" width="9.99988" height="9.99988" transform="matrix(1 8.74228e-08 8.74228e-08 -1 30 24.9999)"/>
<rect class="icon-fill" width="9.99988" height="9.99988" transform="matrix(1 8.74228e-08 8.74228e-08 -1 40.002 25.0002)"/>
<rect class="icon-fill" width="9.99988" height="9.99988" transform="matrix(1 8.74228e-08 8.74228e-08 -1 40 54.9219)"/>
</svg>
